HIERARCHY
ROOT Hips
{
	OFFSET 0.000000 83.214638 0.000000
	CHANNELS 6 Xposition Yposition Zposition Xrotation Yrotation Zrotation
	JOINT Pelvis
	{
		OFFSET 0.000000 0.000000 0.000000
		CHANNELS 3 Xrotation Yrotation Zrotation
		JOINT LeftUpLeg
		{
			OFFSET 8.479700 -4.795502 -0.379100
			CHANNELS 3 Xrotation Yrotation Zrotation
			JOINT LeftLeg
			{
				OFFSET 0.024144 -32.555107 0.112900
				CHANNELS 3 Xrotation Yrotation Zrotation
				JOINT LeftFoot
				{
					OFFSET -0.024144 -32.638630 -3.012600
					CHANNELS 3 Xrotation Yrotation Zrotation
					JOINT LeftToeBase
					{
						OFFSET 0.970200 -13.225400 11.864200
						CHANNELS 3 Xrotation Yrotation Zrotation
						End Site
						{
							OFFSET 0.000000 12.319262 0.000000
						}
					}
					JOINT LFootTongue
					{
						OFFSET 1.142400 -1.059800 6.665200
						CHANNELS 3 Xrotation Yrotation Zrotation
						End Site
						{
							OFFSET 0.000000 12.319262 0.000000
						}
					}
				}
				JOINT LeftPantLeg
				{
					OFFSET 0.918482 -16.533964 -2.284700
					CHANNELS 3 Xrotation Yrotation Zrotation
					End Site
					{
						OFFSET 0.350399 24.744368 0.000000
					}
				}
			}
		}
		JOINT RightUpLeg
		{
			OFFSET -8.479700 -4.795502 -0.379100
			CHANNELS 3 Xrotation Yrotation Zrotation
			JOINT RightLeg
			{
				OFFSET -0.023144 -32.555092 0.112900
				CHANNELS 3 Xrotation Yrotation Zrotation
				JOINT RightFoot
				{
					OFFSET 0.023144 -32.638641 -3.012700
					CHANNELS 3 Xrotation Yrotation Zrotation
					JOINT RightToeBase
					{
						OFFSET -0.970200 -13.225400 11.864200
						CHANNELS 3 Xrotation Yrotation Zrotation
						End Site
						{
							OFFSET 0.000000 12.319244 0.000000
						}
					}
					JOINT RFootTongue
					{
						OFFSET -1.142200 -1.059800 6.665200
						CHANNELS 3 Xrotation Yrotation Zrotation
						End Site
						{
							OFFSET 0.000000 12.319243 0.000000
						}
					}
				}
				JOINT RightPantLeg
				{
					OFFSET -0.919482 -16.533978 -2.284800
					CHANNELS 3 Xrotation Yrotation Zrotation
					End Site
					{
						OFFSET -0.350400 24.744419 0.000000
					}
				}
			}
		}
	}
	JOINT Spine
	{
		OFFSET 0.000000 7.722000 1.166200
		CHANNELS 3 Xrotation Yrotation Zrotation
		JOINT Spine1
		{
			OFFSET 0.000000 12.024101 0.248800
			CHANNELS 3 Xrotation Yrotation Zrotation
			JOINT Spine2
			{
				OFFSET 0.000000 11.502998 -0.491200
				CHANNELS 3 Xrotation Yrotation Zrotation
				JOINT Neck
				{
					OFFSET 0.000000 18.430702 -3.123100
					CHANNELS 3 Xrotation Yrotation Zrotation
					JOINT Head
					{
						OFFSET 0.000000 9.051102 1.034000
						CHANNELS 3 Xrotation Yrotation Zrotation
						JOINT HairB
						{
							OFFSET 0.208400 24.786102 24.822300
							CHANNELS 3 Xrotation Yrotation Zrotation
							End Site
							{
								OFFSET 0.000000 32.263779 0.000000
							}
						}
						JOINT HairA
						{
							OFFSET -7.081100 24.428299 23.196600
							CHANNELS 3 Xrotation Yrotation Zrotation
							End Site
							{
								OFFSET 0.000000 32.263779 0.000000
							}
						}
						JOINT Hat
						{
							OFFSET 16.728800 15.048294 -15.439601
							CHANNELS 3 Xrotation Yrotation Zrotation
							End Site
							{
								OFFSET 0.000000 32.263779 0.000000
							}
						}
					}
				}
				JOINT LeftShoulder
				{
					OFFSET 6.197800 13.665199 -4.064700
					CHANNELS 3 Xrotation Yrotation Zrotation
					JOINT LeftArm
					{
						OFFSET 7.778100 -0.187103 -1.709300
						CHANNELS 3 Xrotation Yrotation Zrotation
						JOINT LeftForeArm
						{
							OFFSET 22.049376 0.000000 0.000000
							CHANNELS 3 Xrotation Yrotation Zrotation
							JOINT LeftHand
							{
								OFFSET 23.009392 0.000000 0.000000
								CHANNELS 3 Xrotation Yrotation Zrotation
								JOINT LeftHandThumb1
								{
									OFFSET 3.507191 -2.063065 3.133727
									CHANNELS 3 Xrotation Yrotation Zrotation
									JOINT LeftHandThumb2
									{
										OFFSET 3.101337 -1.790558 1.790558
										CHANNELS 3 Xrotation Yrotation Zrotation
										JOINT LeftHandThumb3
										{
											OFFSET 3.058640 -1.765907 1.765906
											CHANNELS 3 Xrotation Yrotation Zrotation
											End Site
											{
												OFFSET -0.415260 3.926476 -0.049563
											}
										}
									}
								}
								JOINT LeftHandIndex1
								{
									OFFSET 11.334419 -0.901459 3.706815
									CHANNELS 3 Xrotation Yrotation Zrotation
									JOINT LeftHandIndex2
									{
										OFFSET 3.283112 0.000000 0.000000
										CHANNELS 3 Xrotation Yrotation Zrotation
										JOINT LeftHandIndex3
										{
											OFFSET 3.323853 0.000000 0.000000
											CHANNELS 3 Xrotation Yrotation Zrotation
											End Site
											{
												OFFSET -1.135597 3.097809 0.402452
											}
										}
									}
								}
								JOINT LeftHandMiddle1
								{
									OFFSET 11.335861 0.000000 0.000000
									CHANNELS 3 Xrotation Yrotation Zrotation
									JOINT LeftHandMiddle2
									{
										OFFSET 3.410492 0.000000 0.000000
										CHANNELS 3 Xrotation Yrotation Zrotation
										JOINT LeftHandMiddle3
										{
											OFFSET 3.312172 0.000000 0.000000
											CHANNELS 3 Xrotation Yrotation Zrotation
											End Site
											{
												OFFSET -1.150200 3.080154 0.400270
											}
										}
									}
								}
								JOINT LeftHandRing1
								{
									OFFSET 11.514786 -0.013176 -3.003090
									CHANNELS 3 Xrotation Yrotation Zrotation
									JOINT LeftHandRing2
									{
										OFFSET 3.053307 0.000000 0.000000
										CHANNELS 3 Xrotation Yrotation Zrotation
										JOINT LeftHandRing3
										{
											OFFSET 3.295807 0.000000 0.000000
											CHANNELS 3 Xrotation Yrotation Zrotation
											End Site
											{
												OFFSET -1.281006 3.013344 0.375733
											}
										}
									}
								}
								JOINT LeftHandPinky1
								{
									OFFSET 10.518692 -0.960396 -5.730441
									CHANNELS 3 Xrotation Yrotation Zrotation
									JOINT LeftHandPinky2
									{
										OFFSET 2.861649 0.000000 0.000000
										CHANNELS 3 Xrotation Yrotation Zrotation
										JOINT LeftHandPinky3
										{
											OFFSET 2.863380 0.000000 0.000000
											CHANNELS 3 Xrotation Yrotation Zrotation
											End Site
											{
												OFFSET -0.843597 2.711159 0.369971
											}
										}
									}
								}
							}
							JOINT LSleeve
							{
								OFFSET 6.676277 -0.344902 -1.011730
								CHANNELS 3 Xrotation Yrotation Zrotation
								End Site
								{
									OFFSET 0.000000 14.885353 0.000000
								}
							}
						}
					}
				}
				JOINT RightShoulder
				{
					OFFSET -6.197800 13.665199 -4.064700
					CHANNELS 3 Xrotation Yrotation Zrotation
					JOINT RightArm
					{
						OFFSET -7.778100 -0.187103 -1.709300
						CHANNELS 3 Xrotation Yrotation Zrotation
						JOINT RightForeArm
						{
							OFFSET -22.049376 0.000000 0.000000
							CHANNELS 3 Xrotation Yrotation Zrotation
							JOINT RightHand
							{
								OFFSET -23.009392 0.000000 0.000000
								CHANNELS 3 Xrotation Yrotation Zrotation
								JOINT RightHandThumb1
								{
									OFFSET -3.507191 -2.063065 3.133727
									CHANNELS 3 Xrotation Yrotation Zrotation
									JOINT RightHandThumb2
									{
										OFFSET -3.101337 -1.790558 1.790558
										CHANNELS 3 Xrotation Yrotation Zrotation
										JOINT RightHandThumb3
										{
											OFFSET -3.058640 -1.765907 1.765906
											CHANNELS 3 Xrotation Yrotation Zrotation
											End Site
											{
												OFFSET 0.415260 3.926476 -0.049563
											}
										}
									}
								}
								JOINT RightHandIndex1
								{
									OFFSET -11.334419 -0.901459 3.706815
									CHANNELS 3 Xrotation Yrotation Zrotation
									JOINT RightHandIndex2
									{
										OFFSET -3.283112 0.000000 0.000000
										CHANNELS 3 Xrotation Yrotation Zrotation
										JOINT RightHandIndex3
										{
											OFFSET -3.323853 0.000000 0.000000
											CHANNELS 3 Xrotation Yrotation Zrotation
											End Site
											{
												OFFSET 1.135597 3.097809 0.402452
											}
										}
									}
								}
								JOINT RightHandMiddle1
								{
									OFFSET -11.335861 0.000000 0.000000
									CHANNELS 3 Xrotation Yrotation Zrotation
									JOINT RightHandMiddle2
									{
										OFFSET -3.410492 0.000000 0.000000
										CHANNELS 3 Xrotation Yrotation Zrotation
										JOINT RightHandMiddle3
										{
											OFFSET -3.312172 0.000000 0.000000
											CHANNELS 3 Xrotation Yrotation Zrotation
											End Site
											{
												OFFSET 1.150200 3.080154 0.400270
											}
										}
									}
								}
								JOINT RightHandRing1
								{
									OFFSET -11.514786 -0.013176 -3.003090
									CHANNELS 3 Xrotation Yrotation Zrotation
									JOINT RightHandRing2
									{
										OFFSET -3.053307 0.000000 0.000000
										CHANNELS 3 Xrotation Yrotation Zrotation
										JOINT RightHandRing3
										{
											OFFSET -3.295807 0.000000 0.000000
											CHANNELS 3 Xrotation Yrotation Zrotation
											End Site
											{
												OFFSET 1.281006 3.013344 0.375733
											}
										}
									}
								}
								JOINT RightHandPinky1
								{
									OFFSET -10.518692 -0.960396 -5.730441
									CHANNELS 3 Xrotation Yrotation Zrotation
									JOINT RightHandPinky2
									{
										OFFSET -2.861649 0.000000 0.000000
										CHANNELS 3 Xrotation Yrotation Zrotation
										JOINT RightHandPinky3
										{
											OFFSET -2.863380 0.000000 0.000000
											CHANNELS 3 Xrotation Yrotation Zrotation
											End Site
											{
												OFFSET 0.843597 2.711159 0.369971
											}
										}
									}
								}
							}
							JOINT RSleeve
							{
								OFFSET -6.676277 -0.344902 -1.011730
								CHANNELS 3 Xrotation Yrotation Zrotation
								End Site
								{
									OFFSET 0.000000 14.885353 0.000000
								}
							}
						}
					}
				}
				JOINT Backpack
				{
					OFFSET 0.000000 -2.471497 36.677502
					CHANNELS 3 Xrotation Yrotation Zrotation
					End Site
					{
						OFFSET 0.000000 20.427315 0.000000
					}
				}
				JOINT Hood
				{
					OFFSET 0.000000 18.754097 -10.431000
					CHANNELS 3 Xrotation Yrotation Zrotation
					JOINT Hood1
					{
						OFFSET 0.000000 -5.011002 -7.685901
						CHANNELS 3 Xrotation Yrotation Zrotation
						End Site
						{
							OFFSET 0.000000 9.175140 0.000000
						}
					}
				}
				JOINT LHoodieString
				{
					OFFSET 5.250500 16.397697 3.089900
					CHANNELS 3 Xrotation Yrotation Zrotation
					JOINT LHoodieString1
					{
						OFFSET 0.257700 -6.364304 3.694600
						CHANNELS 3 Xrotation Yrotation Zrotation
						JOINT LHoodieString2
						{
							OFFSET 0.000000 -9.643799 2.679100
							CHANNELS 3 Xrotation Yrotation Zrotation
							End Site
							{
								OFFSET 0.000000 10.009018 0.000000
							}
						}
					}
				}
				JOINT RHoodieString
				{
					OFFSET -5.250500 16.397697 3.089900
					CHANNELS 3 Xrotation Yrotation Zrotation
					JOINT RHoodieString1
					{
						OFFSET -0.257700 -6.364304 3.694600
						CHANNELS 3 Xrotation Yrotation Zrotation
						JOINT RHoodieString2
						{
							OFFSET 0.000000 -9.643799 2.679100
							CHANNELS 3 Xrotation Yrotation Zrotation
							End Site
							{
								OFFSET 0.000000 10.009018 0.000000
							}
						}
					}
				}
			}
			JOINT LBackpack_Strap
			{
				OFFSET 15.223200 -7.719803 -6.610900
				CHANNELS 3 Xrotation Yrotation Zrotation
				End Site
				{
					OFFSET 0.000000 16.040596 0.000000
				}
			}
			JOINT RBackpack_Strap
			{
				OFFSET -15.223000 -7.719803 -6.610900
				CHANNELS 3 Xrotation Yrotation Zrotation
				End Site
				{
					OFFSET 0.000000 16.040596 0.000000
				}
			}
		}
	}
	JOINT BoyFacialAnim_Joint
	{
		OFFSET 1.000000 -82.208099 -1.550900
		CHANNELS 3 Xrotation Yrotation Zrotation
		End Site
		{
			OFFSET 0.000000 30.012791 0.000000
		}
	}
}
MOTION
Frames: 4
Frame Time: 0.033333
-0.516424 75.832855 2.663303 -12.955931 -1.259953 -5.189451 0.000000 0.000000 -0.000000 -32.239548 19.987136 12.009119 42.598008 -9.385105 10.036150 -0.784274 -7.998694 -1.344686 0.000000 0.000000 -0.000000 0.000000 0.000000 -0.000000 -0.000000 -0.000000 0.000000 -23.746116 -36.458037 -2.453057 39.409338 9.581004 -10.299458 -2.877128 7.582067 -5.248708 -0.000000 -0.000002 0.000000 -0.000000 -0.000002 0.000000 -0.000000 -0.000001 0.000000 5.923490 -0.636570 2.819711 9.106089 -0.324703 -0.848842 9.111606 -0.022998 -0.851798 15.434443 0.560289 0.855191 -3.243834 0.523977 4.960276 0.000001 0.000001 -0.000000 0.000001 0.000001 -0.000000 0.000001 0.000001 -0.000000 0.689293 3.725265 -11.385282 59.736944 -63.314672 -9.099175 0.000012 -20.467432 0.000016 -19.310941 9.265444 -7.550709 21.734256 5.841486 -2.497396 -16.162755 18.936380 19.036132 -0.000002 -0.000000 0.000002 0.152615 1.444581 -12.061563 0.086637 1.091014 -9.079583 -0.000001 -0.000001 -0.000002 0.152214 1.442688 -12.045576 0.086937 1.092917 -9.095572 0.000003 -0.000000 0.000002 0.152623 1.444573 -12.061569 0.086624 1.091022 -9.079586 -0.000001 -0.000001 -0.000001 0.985196 5.412791 -11.600966 0.078379 -2.964043 -9.583906 -0.000001 0.000000 0.000002 0.000000 0.000000 0.000001 1.381297 0.020058 11.778361 9.839214 40.445331 56.843242 0.000002 26.830950 -0.000010 35.425719 -10.440535 11.800213 -0.389744 -6.638717 -15.665594 8.907280 -22.771338 0.157760 0.000000 0.000003 0.000003 0.174544 -1.551245 12.839281 0.140305 -1.392661 11.506918 -0.000001 0.000000 0.000000 0.174549 -1.551257 12.839291 0.140308 -1.392645 11.506920 0.000001 0.000000 0.000001 0.174550 -1.551245 12.839290 0.140303 -1.392656 11.506921 -0.000000 -0.000001 0.000004 0.174548 -1.551239 12.839276 0.140306 -1.392656 11.506915 0.000001 -0.000000 0.000000 0.000000 -0.000000 -0.000001 0.000001 -0.000000 0.000000 0.000001 -0.000000 0.000000 0.000001 -0.000000 0.000000 0.000001 -0.000000 0.000000 0.000001 -0.000000 0.000000 0.000001 -0.000000 -0.000000 0.000001 -0.000000 0.000000 0.000001 -0.000000 0.000000 0.000001 -0.000000 -0.000000 -0.000000 0.000000 0.000000 -0.000000 0.000000 0.000000 0.000000 0.000000 -0.000000 
-0.522559 75.840378 2.673338 -12.926779 -1.181642 -5.189063 -0.000001 -0.000000 0.000000 -32.245439 19.954213 11.980125 42.571872 -9.388398 10.035350 -0.769305 -8.014044 -1.328609 0.000000 -0.000000 0.000000 0.000000 -0.000000 0.000000 -0.000000 -0.000001 -0.000000 -23.750315 -36.525618 -2.472801 39.386194 9.582713 -10.298453 -2.888576 7.568844 -5.243447 -0.000000 0.000000 0.000000 -0.000000 0.000000 0.000000 0.000000 -0.000002 0.000000 5.916349 -0.637243 2.826835 9.098279 -0.328489 -0.866142 9.103879 -0.028798 -0.868352 15.411972 0.550058 0.886043 -3.321172 0.521828 4.868124 0.000000 -0.000000 0.000000 0.000000 -0.000000 0.000000 0.000000 -0.000000 0.000000 0.689443 3.729466 -11.390500 59.511384 -63.261957 -9.286476 -0.000003 -20.488097 0.000039 -19.229276 9.299522 -7.586340 21.734256 5.841487 -2.497395 -16.162753 18.936382 19.036133 -0.000000 -0.000001 -0.000000 0.152618 1.444580 -12.061564 0.086640 1.091014 -9.079584 -0.000002 -0.000001 -0.000004 0.152209 1.442689 -12.045574 0.086937 1.092920 -9.095575 0.000003 0.000000 0.000000 0.152626 1.444573 -12.061567 0.086628 1.091023 -9.079586 -0.000000 -0.000001 -0.000001 0.985195 5.412794 -11.600965 0.078378 -2.964041 -9.583903 0.000004 0.000002 -0.000002 -0.000000 -0.000000 -0.000000 1.379338 0.009007 11.778236 9.848084 40.481162 56.846674 0.000004 26.857863 -0.000018 35.377819 -10.457183 11.798780 -0.389743 -6.638714 -15.665594 8.907282 -22.771337 0.157758 -0.000000 0.000001 -0.000000 0.174544 -1.551244 12.839275 0.140305 -1.392663 11.506923 0.000001 0.000001 0.000000 0.174548 -1.551257 12.839287 0.140307 -1.392644 11.506921 0.000002 0.000001 -0.000000 0.174549 -1.551244 12.839284 0.140303 -1.392658 11.506925 -0.000001 0.000000 0.000000 0.174547 -1.551238 12.839279 0.140307 -1.392655 11.506914 -0.000000 -0.000001 0.000002 0.000002 -0.000000 0.000001 0.000000 -0.000000 0.000000 0.000000 -0.000000 0.000000 0.000000 -0.000000 0.000000 0.000000 -0.000000 0.000000 0.000000 -0.000000 0.000000 0.000001 -0.000000 0.000000 0.000000 -0.000000 0.000000 0.000000 -0.000000 0.000000 0.000001 -0.000000 0.000000 -0.000000 0.000000 -0.000000 -0.000000 0.000000 -0.000000 -0.000001 -0.000000 0.000000 
-0.529305 75.847237 2.683922 -12.901482 -1.111889 -5.190445 -0.000000 0.000000 0.000000 -32.250483 19.925130 11.958004 42.549852 -9.390795 10.034504 -0.758190 -8.029597 -1.312953 -0.000000 0.000000 -0.000000 -0.000000 0.000000 -0.000000 0.000000 0.000000 -0.000000 -23.750960 -36.594149 -2.490054 39.365679 9.584093 -10.297569 -2.900981 7.561031 -5.241566 0.000000 0.000000 0.000000 0.000000 0.000000 0.000000 0.000001 -0.000003 0.000000 5.910920 -0.639042 2.833519 9.092752 -0.334137 -0.879477 9.098460 -0.036119 -0.880976 15.389695 0.540275 0.916376 -3.387419 0.520193 4.780245 0.000001 -0.000000 0.000000 0.000001 -0.000000 0.000000 0.000001 -0.000000 0.000000 0.689259 3.730460 -11.388659 59.216258 -63.219364 -9.543473 0.000017 -20.491785 0.000008 -19.135108 9.327723 -7.627759 21.734256 5.841487 -2.497396 -16.162755 18.936382 19.036132 -0.000001 -0.000003 0.000001 0.152620 1.444581 -12.061563 0.086637 1.091013 -9.079585 -0.000002 -0.000001 -0.000000 0.152213 1.442689 -12.045576 0.086936 1.092919 -9.095573 0.000001 0.000000 0.000000 0.152624 1.444572 -12.061565 0.086632 1.091023 -9.079588 0.000002 -0.000001 -0.000000 0.985197 5.412793 -11.600969 0.078380 -2.964043 -9.583905 0.000003 0.000001 0.000002 -0.000000 -0.000000 0.000001 1.377772 0.000540 11.774926 9.850695 40.518127 56.852125 0.000000 26.876195 -0.000013 35.335181 -10.471733 11.796572 -0.389742 -6.638713 -15.665596 8.907281 -22.771338 0.157759 -0.000001 -0.000003 0.000000 0.174546 -1.551244 12.839278 0.140304 -1.392662 11.506917 -0.000000 -0.000000 0.000005 0.174551 -1.551257 12.839290 0.140305 -1.392646 11.506923 0.000000 0.000001 0.000002 0.174550 -1.551244 12.839286 0.140302 -1.392657 11.506922 0.000001 0.000000 0.000002 0.174546 -1.551240 12.839275 0.140308 -1.392656 11.506914 -0.000000 0.000000 -0.000001 0.000000 0.000001 -0.000001 -0.000000 0.000000 -0.000000 -0.000000 0.000000 -0.000000 -0.000000 0.000000 -0.000000 -0.000000 0.000000 -0.000000 -0.000000 0.000000 -0.000000 0.000001 -0.000000 0.000000 -0.000000 0.000000 -0.000000 -0.000000 0.000000 -0.000000 0.000001 -0.000000 0.000000 0.000000 0.000000 0.000000 0.000000 0.000000 0.000000 -0.000000 0.000000 0.000000 
-0.536274 75.853516 2.694849 -12.880138 -1.048672 -5.193173 0.000000 0.000000 -0.000001 -32.254073 19.899148 11.941082 42.531544 -9.392850 10.033633 -0.750299 -8.044124 -1.298060 0.000000 0.000000 -0.000000 0.000000 0.000000 -0.000000 -0.000000 -0.000001 -0.000000 -23.747900 -36.662181 -2.505212 39.347398 9.585546 -10.296768 -2.914181 7.556392 -5.241771 0.000000 0.000000 -0.000000 0.000000 0.000000 -0.000000 0.000000 -0.000001 0.000001 5.907203 -0.642137 2.839913 9.089677 -0.341986 -0.888691 9.095517 -0.045239 -0.889513 15.367736 0.531762 0.945649 -3.441945 0.522780 4.698530 0.000002 -0.000001 -0.000000 0.000002 -0.000001 -0.000000 0.000002 -0.000001 -0.000000 0.688683 3.728787 -11.378839 58.849354 -63.190847 -9.874610 0.000009 -20.472934 -0.000010 -19.027430 9.351049 -7.674196 21.734263 5.841487 -2.497396 -16.162755 18.936384 19.036130 -0.000000 -0.000001 0.000000 0.152617 1.444580 -12.061563 0.086636 1.091014 -9.079583 -0.000002 0.000001 -0.000003 0.152213 1.442688 -12.045575 0.086930 1.092918 -9.095574 0.000001 -0.000000 0.000000 0.152624 1.444573 -12.061567 0.086630 1.091025 -9.079588 -0.000001 -0.000001 -0.000004 0.985198 5.412791 -11.600967 0.078381 -2.964041 -9.583907 -0.000003 0.000000 -0.000004 0.000000 0.000001 0.000001 1.376741 -0.004523 11.768821 9.848455 40.558124 56.859067 0.000010 26.885310 -0.000011 35.296563 -10.483927 11.790567 -0.389744 -6.638714 -15.665594 8.907280 -22.771332 0.157758 0.000001 -0.000002 -0.000001 0.174546 -1.551244 12.839280 0.140304 -1.392663 11.506924 -0.000001 0.000001 0.000002 0.174550 -1.551256 12.839291 0.140308 -1.392646 11.506924 0.000002 0.000001 -0.000000 0.174548 -1.551245 12.839287 0.140303 -1.392658 11.506924 -0.000000 0.000000 0.000000 0.174545 -1.551239 12.839275 0.140309 -1.392656 11.506917 0.000000 -0.000001 0.000002 0.000001 0.000000 -0.000001 0.000000 0.000000 -0.000000 0.000000 0.000000 -0.000000 0.000000 0.000000 -0.000000 0.000000 0.000000 -0.000000 0.000000 0.000000 0.000000 0.000000 -0.000000 -0.000000 0.000000 0.000000 -0.000000 0.000000 0.000000 0.000000 0.000000 -0.000000 -0.000000 -0.000000 -0.000000 -0.000000 -0.000000 -0.000000 -0.000000 0.000000 0.000000 -0.000001 
